<svg xmlns="http://www.w3.org/2000/svg" width="180.179" height="62.07" viewBox="0 0 180.179 62.07"><defs><style>.a{fill:#00918e;}.b{fill:#01c9a1;}.c{fill:#00ad97;}.d,.e{fill:#224169;}.e{font-size:31px;font-family:Cairo-Bold, Cairo;}.e,.f{font-weight:700;}.f{fill:#58595b;font-size:7px;font-family:DINNextLTW23-Bold, DIN Next LT W23;}</style></defs><g transform="translate(89.589 31.035)"><g transform="translate(-89.589 -31.035)"><g transform="translate(3.758 6.495)"><path class="a" d="M24.511,16.833a17.629,17.629,0,0,0-10.848-4.914c-.924-.089-1.162-.387-1.162-1.281.06-2.532.03-2.561,2.414-1.787,3.278,1.072,6.288,2.591,8.434,5.421A5.776,5.776,0,0,1,24.511,16.833Z" transform="translate(-12.5 -8.407)"/><path class="a" d="M59.8,16.833a17.629,17.629,0,0,1,10.848-4.914c.924-.089,1.162-.387,1.162-1.281-.06-2.532-.03-2.561-2.414-1.787-3.278,1.072-6.259,2.591-8.4,5.421A5.776,5.776,0,0,0,59.8,16.833Z" transform="translate(-45.703 -8.407)"/><path class="a" d="M24.511,158.2a17.629,17.629,0,0,1-10.848,4.914c-.924.089-1.162.387-1.162,1.281.06,2.532.03,2.561,2.414,1.787,3.278-1.072,6.288-2.591,8.434-5.421A5.776,5.776,0,0,0,24.511,158.2Z" transform="translate(-12.5 -113.586)"/><path class="a" d="M59.8,158.2a17.629,17.629,0,0,0,10.848,4.914c.924.089,1.162.387,1.162,1.281-.06,2.532-.03,2.561-2.414,1.787-3.278-1.072-6.288-2.591-8.434-5.421A5.776,5.776,0,0,1,59.8,158.2Z" transform="translate(-45.703 -113.586)"/></g><g transform="translate(9.33 3.991)"><path class="b" d="M59.8,8.4c.119-3.217,2.772-6.731,6.259-8.4V2.5a.655.655,0,0,1-.417.655A14.958,14.958,0,0,0,59.8,8.4Z" transform="translate(-51.275)"/><path class="b" d="M37.455,8.4C37.366,5.153,34.683,1.668,31.2,0V2.5a.655.655,0,0,0,.417.655A14.958,14.958,0,0,1,37.455,8.4Z" transform="translate(-31.195)"/><path class="b" d="M59.8,166.8c.119,3.217,2.772,6.731,6.259,8.4v-2.5a.655.655,0,0,0-.417-.655A14.958,14.958,0,0,1,59.8,166.8Z" transform="translate(-51.275 -117.12)"/><path class="b" d="M37.455,166.8c-.119,3.217-2.772,6.731-6.259,8.4v-2.5a.655.655,0,0,1,.417-.655A14.958,14.958,0,0,0,37.455,166.8Z" transform="translate(-31.195 -117.12)"/></g><g transform="translate(4.533 15.885)"><path class="c" d="M22.889,42.608A13.8,13.8,0,0,0,16,39.957c-.656-.089-.8.149-.8.745.03,3.485,0,6.969,0,10.454,0,.417.03.8.566.864a21.826,21.826,0,0,1,7.779,2.353c0-3.693,0-7.208,0-10.722A1.281,1.281,0,0,0,22.889,42.608Z" transform="translate(-15.17 -39.937)"/><path class="c" d="M74.2,54.369a21.826,21.826,0,0,1,7.779-2.353c.536-.06.566-.417.566-.864,0-3.485-.03-6.969,0-10.454,0-.625-.149-.834-.8-.745A13.8,13.8,0,0,0,74.856,42.6a1.326,1.326,0,0,0-.656,1.042Z" transform="translate(-56.586 -39.934)"/><path class="c" d="M23.445,111.4a21.826,21.826,0,0,1-7.779,2.353c-.536.06-.566.417-.566.864,0,3.485.03,6.969,0,10.454,0,.625.149.834.8.745a13.8,13.8,0,0,0,6.885-2.651,1.326,1.326,0,0,0,.656-1.042C23.445,118.608,23.445,115.093,23.445,111.4Z" transform="translate(-15.1 -90.115)"/><path class="c" d="M82.445,114.617c0-.417-.03-.8-.566-.864A21.826,21.826,0,0,1,74.1,111.4v10.722a1.218,1.218,0,0,0,.656,1.042,13.8,13.8,0,0,0,6.885,2.651c.656.089.8-.149.8-.745Z" transform="translate(-56.516 -90.115)"/></g><g transform="translate(0 11.05)"><path class="d" d="M15.778,56.92v-14.8h0v-7.8c.03-.774.03-1.579.06-2.353a4.945,4.945,0,0,0-2.384-4.646,19.523,19.523,0,0,0-2.325-1.43A22.042,22.042,0,0,0,1,23.8c-.924,0-1.1.3-1.1,1.162q.06,8.637,0,17.245c0,.8.179,1.042,1.013,1.072a23.954,23.954,0,0,1,10.163,2.293A23.954,23.954,0,0,1,.906,47.865c-.864.03-1.043.3-1.013,1.072q.06,8.637,0,17.245c0,.864.149,1.162,1.1,1.162a21.964,21.964,0,0,0,10.133-2.085,19.523,19.523,0,0,0,2.325-1.43,5,5,0,0,0,2.384-4.646C15.837,58.379,15.808,57.635,15.778,56.92ZM3.678,38.9c0-3.485.03-6.969,0-10.454,0-.625.149-.834.8-.745a13.8,13.8,0,0,1,6.885,2.651,1.326,1.326,0,0,1,.656,1.042c-.03,3.514,0,7.029,0,10.722a21.826,21.826,0,0,0-7.779-2.353C3.708,39.7,3.678,39.347,3.678,38.9Zm7.689,21.832a13.8,13.8,0,0,1-6.885,2.651c-.656.089-.8-.149-.8-.745.03-3.485,0-6.969,0-10.454,0-.417.03-.8.566-.864a21.826,21.826,0,0,0,7.779-2.353c0,3.693,0,7.208,0,10.722A1.281,1.281,0,0,1,11.367,60.732Z" transform="translate(0.11 -23.77)"/><path class="d" d="M74.615,48.838c0-.8-.179-1.042-1.013-1.072a23.954,23.954,0,0,1-10.163-2.293A23.954,23.954,0,0,1,73.6,43.179c.864-.03,1.043-.3,1.013-1.072q-.06-8.637,0-17.245c0-.864-.149-1.162-1.1-1.162a21.964,21.964,0,0,0-10.133,2.085,19.524,19.524,0,0,0-2.325,1.43A4.994,4.994,0,0,0,58.7,31.027V59.47h0A4.913,4.913,0,0,0,61.084,63.7a19.523,19.523,0,0,0,2.325,1.43,22.042,22.042,0,0,0,10.133,2.085c.924,0,1.1-.3,1.1-1.162Q74.555,57.475,74.615,48.838ZM63.17,30.282a13.8,13.8,0,0,1,6.885-2.651c.656-.089.8.149.8.745-.03,3.485,0,6.969,0,10.454,0,.417-.03.8-.566.864a21.826,21.826,0,0,0-7.779,2.353V31.325A1.326,1.326,0,0,1,63.17,30.282Zm6.885,33.03a13.8,13.8,0,0,1-6.885-2.651,1.326,1.326,0,0,1-.656-1.042c.03-3.515,0-7.029,0-10.722a21.826,21.826,0,0,0,7.779,2.353c.536.06.566.417.566.864,0,3.485-.03,6.969,0,10.454C70.889,63.164,70.711,63.4,70.055,63.313Z" transform="translate(-41.173 -23.7)"/></g><text class="e" transform="translate(39.492 40)"><tspan x="0" y="0">COURSES</tspan></text><text class="f" transform="translate(170.179 14.561)"><tspan x="0" y="0">TM</tspan></text></g></g></svg>