<svg xmlns="http://www.w3.org/2000/svg" xmlns:xlink="http://www.w3.org/1999/xlink" width="361.027" height="640.282" viewBox="0 0 361.027 640.282"><defs><style>.a{fill:url(#a);}.b,.e{fill:none;}.b{stroke:#01614d;stroke-width:2px;}.c{fill:url(#b);}.d{stroke:none;}</style><linearGradient id="a" x1="0.924" x2="0.226" y2="0.767" gradientUnits="objectBoundingBox"><stop offset="0" stop-color="#fff" stop-opacity="0"/><stop offset="0.348" stop-color="#fcfcfc" stop-opacity="0.204"/><stop offset="1" stop-color="#efefef"/></linearGradient><linearGradient id="b" x1="0.076" y1="1" x2="0.774" y2="0.233" xlink:href="#a"/></defs><g transform="translate(0.108)"><path class="a" d="M243.2,1137s-8,76.4,57.6,89.2,60-37.6,60-37.6V1137Z" transform="translate(0 -1137)"/><g class="b" transform="translate(23 471)"><circle class="d" cx="4.5" cy="4.5" r="4.5"/><circle class="e" cx="4.5" cy="4.5" r="3.5"/></g><g class="b" transform="translate(320 241)"><circle class="d" cx="4.5" cy="4.5" r="4.5"/><circle class="e" cx="4.5" cy="4.5" r="3.5"/></g><g class="b" transform="translate(276 601)"><circle class="d" cx="6" cy="6" r="6"/><circle class="e" cx="6" cy="6" r="5"/></g><g class="b" transform="translate(237 5)"><circle class="d" cx="6" cy="6" r="6"/><circle class="e" cx="6" cy="6" r="5"/></g><path class="c" d="M360.612,1228.282s8-76.4-57.6-89.2-60,37.6-60,37.6v51.6Z" transform="translate(-243 -588)"/></g></svg>